<svg xmlns="http://www.w3.org/2000/svg" width="188.771" height="60.753" viewBox="0 0 188.771 60.753">
  <g id="la-joliverie-logo" transform="translate(-64 -13)">
    <g id="Groupe_615" data-name="Groupe 615" transform="translate(118.263 13)">
      <path id="Tracé_172" data-name="Tracé 172" d="M180.857-163.391h-.177a80.936,80.936,0,0,0-39.533,10.081l-.377.214,2.511.928.078-.039c10.437-5.278,22.646-7.861,37.326-7.893h.218c14.038,0,28.249,3.072,37.131,8.036l.082.046,2.488-.933-.341-.217c-8-5.1-23.265-10.222-39.406-10.222" transform="translate(-140.77 163.391)" fill="#f3940d"/>
    </g>
    <rect id="Rectangle_467" data-name="Rectangle 467" width="3.017" height="30.009" transform="translate(64 43.743)" fill="#030507"/>
    <g id="Groupe_616" data-name="Groupe 616" transform="translate(68.395 33.321)">
      <path id="Tracé_173" data-name="Tracé 173" d="M63.356-80.092a6.262,6.262,0,0,1-.58,2.734,6.23,6.23,0,0,1-1.569,2.047,6.859,6.859,0,0,1-2.315,1.29,8.834,8.834,0,0,1-2.8.445,5.439,5.439,0,0,1-1.72-.28,4.447,4.447,0,0,1-1.469-.812A4.1,4.1,0,0,1,51.9-75.934a3.606,3.606,0,0,1-.372-1.668,2.938,2.938,0,0,1,.867-2.276A6.151,6.151,0,0,1,54.7-81.143a18.778,18.778,0,0,1,3.179-.675c1.116-.143,2.27-.318,3.429-.519a10.681,10.681,0,0,0,1.27-.3,2.082,2.082,0,0,0,.776-.4Zm4.35,5.9c-.91,0-1.333-.437-1.333-1.375V-86.933a7.77,7.77,0,0,0-.728-3.6,5.806,5.806,0,0,0-1.892-2.17,7.074,7.074,0,0,0-2.6-1.045,15.387,15.387,0,0,0-2.857-.271,13.272,13.272,0,0,0-3.451.42A7.846,7.846,0,0,0,52.1-92.277a6.356,6.356,0,0,0-1.864,2.311,8.9,8.9,0,0,0-.807,3.309l-.015.215h3.023l.007-.2a4.454,4.454,0,0,1,1.578-3.639,6.43,6.43,0,0,1,3.941-1.141,11.969,11.969,0,0,1,2.142.183,4.7,4.7,0,0,1,1.709.655,3.251,3.251,0,0,1,1.133,1.272,4.574,4.574,0,0,1,.413,2.083,3.493,3.493,0,0,1-.211,1.332,1.8,1.8,0,0,1-.579.767,2.325,2.325,0,0,1-.955.4c-.4.08-.864.147-1.435.205q-2.116.248-4.17.518a15.347,15.347,0,0,0-3.741.946,6.518,6.518,0,0,0-2.716,1.991,5.766,5.766,0,0,0-1.038,3.631,6.735,6.735,0,0,0,.578,2.884,5.592,5.592,0,0,0,1.592,2.019,6.529,6.529,0,0,0,2.355,1.157,10.948,10.948,0,0,0,2.851.36,11.36,11.36,0,0,0,2.765-.3,7.693,7.693,0,0,0,2.086-.852A7.343,7.343,0,0,0,62.4-73.55a16.8,16.8,0,0,0,1.173-1.471,9.482,9.482,0,0,0,.095,1.035,3.087,3.087,0,0,0,.468,1.263,2.342,2.342,0,0,0,1.018.838,4.083,4.083,0,0,0,1.679.289,7.9,7.9,0,0,0,.915-.043c.238-.026.512-.068.822-.126l.165-.03v-2.677l-.284.126a1.822,1.822,0,0,1-.746.15" transform="translate(-48.512 111.334)" fill="#030507"/>
      <path id="Tracé_174" data-name="Tracé 174" d="M117.994-99.116a27.431,27.431,0,0,1-.328,4.565,7.965,7.965,0,0,1-1.118,3.072,4.613,4.613,0,0,1-2.152,1.731,9.619,9.619,0,0,1-3.54.559,7.151,7.151,0,0,1-4.289-1.082,6.239,6.239,0,0,1-2.1-2.626,10.151,10.151,0,0,1-.752-3.275q-.11-1.751-.163-3.009l-.009-.194H99.427v.2a28.017,28.017,0,0,0,.442,5.02,11.535,11.535,0,0,0,1.673,4.32,8.983,8.983,0,0,0,3.414,3.024,11.989,11.989,0,0,0,5.57,1.147,17.583,17.583,0,0,0,5.4-.723,8.477,8.477,0,0,0,3.589-2.189,8.691,8.691,0,0,0,1.993-3.7,20.132,20.132,0,0,0,.609-5.257v-28.407h-4.127Z" transform="translate(-71.906 125.936)" fill="#030507"/>
      <path id="Tracé_175" data-name="Tracé 175" d="M166.968-87.96h0a12.231,12.231,0,0,1-1.831,3.8,9.338,9.338,0,0,1-3.029,2.682,8.58,8.58,0,0,1-4.231,1.013,8.556,8.556,0,0,1-4.228-1.013,9.357,9.357,0,0,1-3.03-2.682,12.272,12.272,0,0,1-1.832-3.8,15.588,15.588,0,0,1-.623-4.35,15.623,15.623,0,0,1,.623-4.354,12.322,12.322,0,0,1,1.832-3.8,9.341,9.341,0,0,1,3.03-2.681,8.559,8.559,0,0,1,4.228-1.015,8.58,8.58,0,0,1,4.231,1.015,9.326,9.326,0,0,1,3.029,2.68,12.284,12.284,0,0,1,1.831,3.8,15.462,15.462,0,0,1,.624,4.353,15.434,15.434,0,0,1-.624,4.35m.98-15h0a12.763,12.763,0,0,0-4.258-3.283,13.282,13.282,0,0,0-5.812-1.227,13.267,13.267,0,0,0-5.811,1.227,12.748,12.748,0,0,0-4.258,3.283,14.3,14.3,0,0,0-2.611,4.8,18.984,18.984,0,0,0-.884,5.842,18.954,18.954,0,0,0,.884,5.838,14.286,14.286,0,0,0,2.611,4.806,12.409,12.409,0,0,0,4.26,3.254,13.482,13.482,0,0,0,5.81,1.2,13.507,13.507,0,0,0,5.812-1.2,12.427,12.427,0,0,0,4.258-3.254,14.229,14.229,0,0,0,2.611-4.806,18.906,18.906,0,0,0,.886-5.838,18.935,18.935,0,0,0-.886-5.842,14.261,14.261,0,0,0-2.611-4.8" transform="translate(-92.53 117.486)" fill="#030507"/>
    </g>
    <rect id="Rectangle_468" data-name="Rectangle 468" width="3.853" height="39.508" transform="translate(148.276 34.244)" fill="#030507"/>
    <rect id="Rectangle_469" data-name="Rectangle 469" width="3.852" height="5.936" transform="translate(154.575 34.244)" fill="#030507"/>
    <path id="Tracé_176" data-name="Tracé 176" d="M232.653-104.245l-8.676,24.562-8.787-24.562h-7.242v28.664H211.8v-26.383l10.176,26.383h3.946l10.722-28.664Z" transform="translate(-53.374 149.334)" fill="#030507"/>
    <g id="Groupe_617" data-name="Groupe 617" transform="translate(180.917 43.343)">
      <path id="Tracé_177" data-name="Tracé 177" d="M260.563-94.483a15.777,15.777,0,0,1,.863-3.48,11.164,11.164,0,0,1,1.8-3.172,8.748,8.748,0,0,1,2.731-2.195,7.963,7.963,0,0,1,3.686-.826,7.834,7.834,0,0,1,3.632.826,8.725,8.725,0,0,1,2.731,2.195,10.21,10.21,0,0,1,1.745,3.142,12.265,12.265,0,0,1,.666,3.51Zm18.972-7.935h0a11.813,11.813,0,0,0-3.984-3.649,11.836,11.836,0,0,0-5.906-1.4,12.5,12.5,0,0,0-5.874,1.31,11.681,11.681,0,0,0-4.037,3.455,14.975,14.975,0,0,0-2.3,4.857,20.8,20.8,0,0,0-.747,5.531,21.928,21.928,0,0,0,.747,5.775,14.313,14.313,0,0,0,2.306,4.833,10.853,10.853,0,0,0,4.043,3.29,13.413,13.413,0,0,0,5.867,1.2c3.614,0,6.452-.9,8.433-2.681a14.021,14.021,0,0,0,4.086-7.553l.056-.247h-3.859l-.038.154a10.234,10.234,0,0,1-2.9,5.158,8.238,8.238,0,0,1-5.779,1.917,7.981,7.981,0,0,1-4.116-1.011,9.426,9.426,0,0,1-2.84-2.573,10.478,10.478,0,0,1-1.641-3.519,15.349,15.349,0,0,1-.51-3.609h21.737l.007-.194a22.84,22.84,0,0,0-.554-5.885,15.138,15.138,0,0,0-2.193-5.161" transform="translate(-256.683 107.463)" fill="#030507"/>
      <path id="Tracé_178" data-name="Tracé 178" d="M318.991-104.962a10.923,10.923,0,0,0-6.719,1.731,10.883,10.883,0,0,0-3.876,4.725v-6.073h-3.58v28.663h3.852V-91.18a10.737,10.737,0,0,1,.753-4.059,9.377,9.377,0,0,1,2.116-3.19,9.464,9.464,0,0,1,3.249-2.064,9.9,9.9,0,0,1,3.5-.629v25.206h3.854v-29.044h-3.118Z" transform="translate(-278.799 106.325)" fill="#030507"/>
    </g>
    <rect id="Rectangle_470" data-name="Rectangle 470" width="3.853" height="5.935" transform="translate(220.405 34.096)" fill="#030507"/>
    <path id="Tracé_179" data-name="Tracé 179" d="M342.534-94.484a15.75,15.75,0,0,1,.865-3.478,11.044,11.044,0,0,1,1.8-3.174,8.655,8.655,0,0,1,2.731-2.194,7.956,7.956,0,0,1,3.686-.828,7.838,7.838,0,0,1,3.63.828,8.645,8.645,0,0,1,2.73,2.194,10.173,10.173,0,0,1,1.745,3.142,12.225,12.225,0,0,1,.666,3.51ZM363.7-97.255a15.129,15.129,0,0,0-2.192-5.162,11.84,11.84,0,0,0-3.984-3.65,11.825,11.825,0,0,0-5.9-1.4,12.471,12.471,0,0,0-5.872,1.31A11.658,11.658,0,0,0,341.7-102.7a15,15,0,0,0-2.3,4.857,20.875,20.875,0,0,0-.747,5.532,22,22,0,0,0,.747,5.775,14.309,14.309,0,0,0,2.3,4.832,10.862,10.862,0,0,0,4.048,3.29,13.39,13.39,0,0,0,5.865,1.2c3.612,0,6.449-.9,8.43-2.681a14.032,14.032,0,0,0,4.088-7.554l.056-.247h-3.86l-.038.154a10.2,10.2,0,0,1-2.9,5.158,8.227,8.227,0,0,1-5.778,1.918,7.926,7.926,0,0,1-4.113-1.013,9.331,9.331,0,0,1-2.842-2.574,10.392,10.392,0,0,1-1.64-3.518,15.184,15.184,0,0,1-.514-3.609h21.735l.007-.194a22.637,22.637,0,0,0-.552-5.884" transform="translate(-113.431 150.806)" fill="#030507"/>
    <path id="Tracé_180" data-name="Tracé 180" d="M381.29-99.766a14.035,14.035,0,0,0-5.6-6.979l-.145-.089-1.183,1.334a11.791,11.791,0,0,1,3.55,3.371,15.136,15.136,0,0,1,2.191,5.161,22.643,22.643,0,0,1,.552,5.885l-.007.19h1.878l.013-.186a19.048,19.048,0,0,0-1.255-8.688" transform="translate(-129.839 150.518)" fill="#f3940d"/>
  </g>
</svg>
